# xmcd CD database file
#
# Track frame offsets:
#	150
#	22635
#	48697
#	72547
#	92580
#	113822
#
# Disc length: 1827 seconds
#
# Revision: 0
# Processed by: cddbd v1.5PL3 Copyright (c) Steve Scherf et al.
# Submitted via: CDex 1.51
#
DISCID=47072106
DTITLE=Shocking Lemon - Everything in my Life
DYEAR=2003
DGENRE=JPop
TTITLE0=Star Star
TTITLE1=I'm so hurt
TTITLE2=In my life
TTITLE3=My Bomb
TTITLE4=Freedum
TTITLE5=Tell me over
EXTD=YEAR: 2003
EXTT0=
EXTT1=
EXTT2=
EXTT3=
EXTT4=
EXTT5=
PLAYORDER=
